<svg width="19" height="19" viewBox="0 0 19 19" fill="none" xmlns="http://www.w3.org/2000/svg">
<path fill-rule="evenodd" clip-rule="evenodd" d="M8.16669 0.208344C3.67937 0.208344 0.041687 3.84603 0.041687 8.33334C0.041687 12.8207 3.67937 16.4583 8.16669 16.4583C12.654 16.4583 16.2917 12.8207 16.2917 8.33334C16.2917 3.84603 12.654 0.208344 8.16669 0.208344ZM1.29169 8.33334C1.29169 4.53639 4.36973 1.45834 8.16669 1.45834C11.9636 1.45834 15.0417 4.53639 15.0417 8.33334C15.0417 12.1303 11.9636 15.2083 8.16669 15.2083C4.36973 15.2083 1.29169 12.1303 1.29169 8.33334Z" fill="#FAFAFA"/>
<path d="M15.2754 14.5581C15.0313 14.3141 14.6355 14.3141 14.3915 14.5581C14.1474 14.8022 14.1474 15.1979 14.3915 15.442L17.7247 18.7753C17.9688 19.0194 18.3645 19.0194 18.6086 18.7753C18.8527 18.5312 18.8527 18.1355 18.6086 17.8914L15.2754 14.5581Z" fill="#FAFAFA"/>
</svg>
