<?xml version="1.0" standalone="no"?>
<!DOCTYPE svg PUBLIC "-//W3C//DTD SVG 20010904//EN"
 "http://www.w3.org/TR/2001/REC-SVG-20010904/DTD/svg10.dtd">
<svg version="1.0" xmlns="http://www.w3.org/2000/svg"
 width="848.000000pt" height="848.000000pt" viewBox="0 0 848.000000 848.000000"
 preserveAspectRatio="xMidYMid meet">
<metadata>
Created by potrace 1.14, written by Peter Selinger 2001-2017
</metadata>
<g transform="translate(0.000000,848.000000) scale(0.100000,-0.100000)"
fill="#000000" stroke="none">
<path d="M7 5733 c-4 -3 -7 -642 -7 -1420 l0 -1413 23 -1 c33 -1 679 -1 702 0
20 1 24 22 16 86 -1 6 -116 10 -323 10 l-323 0 0 1322 c0 873 3 1324 10 1326
20 6 8260 1 8270 -5 7 -4 10 -456 10 -1325 l0 -1318 -140 -1 -140 0 0 -49 0
-48 180 1 c99 0 183 1 188 1 4 1 7 640 7 1421 l0 1420 -4233 0 c-2329 0 -4237
-3 -4240 -7z"/>
<path d="M3169 4760 l-26 -5 0 -392 c0 -430 -5 -395 52 -395 8 0 20 0 25 1 6
1 10 140 10 395 0 434 4 410 -61 396z"/>
<path d="M3786 4746 c-54 -28 -87 -87 -89 -161 l-2 -56 -40 -11 c-81 -23 -85
-50 -9 -58 l49 -5 0 -242 0 -243 25 -1 c14 0 33 -2 43 -4 19 -4 19 -7 18 338
l0 157 72 0 73 0 -2 28 c-1 15 -3 30 -3 33 -1 4 -20 7 -43 7 -105 -1 -99 -4
-94 56 8 96 47 125 143 105 29 -6 33 -4 43 24 15 43 7 48 -94 52 -33 1 -63 -5
-90 -19z"/>
<path d="M6835 4762 l-30 -3 2 -149 2 -150 -37 29 c-46 37 -95 50 -162 45 -87
-7 -144 -49 -183 -134 -16 -35 -20 -67 -21 -145 -1 -118 18 -185 67 -235 45
-46 91 -63 169 -62 53 0 74 6 106 26 22 14 43 30 47 36 11 18 21 11 23 -16 3
-37 9 -43 43 -40 l31 2 0 375 c0 206 -1 384 -1 395 -1 25 -14 31 -56 26z m-98
-323 c46 -29 67 -92 67 -204 0 -112 -20 -161 -77 -189 -48 -23 -119 -23 -160
1 -53 31 -72 84 -72 198 0 87 3 105 24 142 44 77 140 100 218 52z"/>
<path d="M1302 4732 c-51 -8 -46 -103 6 -110 29 -4 48 11 55 44 6 34 -29 72
-61 66z"/>
<path d="M3421 4724 c-40 -28 -19 -104 29 -104 42 0 65 57 38 92 -20 24 -44
28 -67 12z"/>
<path d="M7094 4730 c-49 -19 -32 -110 20 -110 26 0 40 14 48 46 10 41 -30 78
-68 64z"/>
<path d="M878 4724 c-2 -1 -21 -5 -42 -8 -69 -11 -134 -63 -153 -122 -13 -36
-10 -108 6 -147 13 -32 60 -81 99 -101 15 -8 63 -28 108 -45 83 -32 143 -78
145 -112 1 -11 2 -25 3 -31 4 -24 -15 -65 -38 -87 -38 -36 -136 -48 -227 -29
-41 9 -84 19 -97 23 -22 7 -23 5 -20 -35 3 -40 6 -44 43 -57 46 -16 178 -21
246 -10 108 18 180 100 181 206 0 57 -19 98 -64 136 -33 28 -120 73 -155 80
-39 7 -121 58 -134 82 -8 14 -14 46 -14 71 0 38 5 48 32 71 32 26 49 32 108
34 46 1 122 -11 144 -22 11 -6 24 -11 29 -11 9 0 32 51 32 70 0 17 -218 58
-232 44z"/>
<path d="M5035 4723 c-89 -9 -162 -49 -191 -106 -25 -48 -22 -135 6 -185 28
-50 76 -83 177 -122 107 -41 150 -72 162 -115 17 -61 -1 -110 -51 -139 -53
-32 -178 -28 -304 9 -18 6 -20 2 -20 -36 1 -42 2 -43 46 -56 62 -18 185 -22
248 -8 143 33 216 164 156 283 -29 58 -64 82 -191 133 -139 57 -181 108 -151
187 20 53 64 76 147 74 36 0 88 -7 116 -16 55 -17 62 -14 71 30 5 26 2 31 -28
41 -56 20 -138 31 -193 26z"/>
<path d="M5465 4649 c-38 -108 -41 -114 -78 -132 -24 -11 -37 -24 -37 -37 0
-17 7 -20 40 -20 l40 0 0 -198 c0 -173 2 -202 19 -232 25 -48 69 -71 133 -72
79 -2 98 7 98 46 0 31 -1 32 -35 28 -19 -2 -50 -1 -69 2 -53 10 -62 47 -62
251 l1 170 83 3 83 3 -4 32 -3 32 -70 0 c-38 1 -74 4 -79 7 -6 4 -10 32 -10
62 1 31 -2 56 -6 56 -4 0 -14 3 -23 6 -9 3 -18 0 -21 -7z"/>
<path d="M1733 4528 c-26 -6 -57 -22 -78 -42 -38 -37 -45 -36 -45 6 0 15 -4
29 -10 29 -5 1 -22 2 -37 3 l-28 1 0 -280 0 -280 42 0 42 -1 3 196 c2 164 6
201 21 232 46 93 211 92 237 -2 5 -19 10 -123 10 -230 l0 -196 33 1 c17 1 37
3 42 3 6 1 10 72 11 190 0 160 3 193 19 226 25 52 67 76 133 76 46 0 58 -4 83
-29 16 -16 30 -40 30 -53 1 -13 3 -108 4 -213 2 -104 3 -193 4 -196 1 -3 19
-6 41 -5 l40 1 0 217 c0 175 -3 225 -16 257 -43 109 -214 131 -317 41 l-43
-38 -16 29 c-28 48 -122 74 -205 57z"/>
<path d="M2703 4528 c-26 -5 -57 -23 -78 -42 l-35 -34 -6 27 c-3 14 -7 31 -9
37 -4 15 -62 16 -67 1 -3 -7 -4 -190 -4 -407 l1 -395 43 -3 43 -3 -3 161 c-2
88 -1 160 1 160 3 0 17 -12 32 -26 59 -57 190 -65 262 -16 76 51 108 121 112
247 7 214 -111 332 -292 293z m150 -106 c38 -36 57 -107 53 -197 -4 -82 -31
-143 -77 -177 -34 -26 -118 -26 -161 -1 -55 31 -73 81 -73 203 0 147 26 191
126 208 53 10 94 -2 132 -36z"/>
<path d="M7500 4530 c-129 -25 -201 -138 -195 -305 6 -167 102 -268 255 -268
109 0 189 50 231 145 18 43 23 70 23 143 -1 133 -44 219 -135 265 -40 21 -126
31 -179 20z m154 -95 c16 -11 39 -41 51 -68 42 -89 23 -250 -35 -302 -31 -28
-87 -42 -135 -35 -99 15 -139 77 -140 215 0 100 19 153 66 188 53 38 136 39
193 2z"/>
<path d="M1270 4249 c0 -153 3 -279 8 -280 4 0 23 -2 43 -3 l36 -2 -1 280 -1
281 -42 2 -43 1 0 -279z"/>
<path d="M3409 4520 c-1 -7 -1 -477 0 -521 1 -31 4 -35 24 -33 12 1 30 3 40 3
16 1 17 21 17 280 l0 280 -40 -2 c-22 -1 -40 -4 -41 -7z"/>
<path d="M3945 4520 c-2 -4 45 -130 106 -281 l110 -274 -26 -65 c-32 -82 -69
-111 -144 -112 -50 0 -51 -1 -51 -29 0 -36 23 -47 92 -44 58 3 105 29 141 81
21 30 150 357 287 729 0 0 -20 1 -45 1 l-45 0 -24 -66 c-44 -115 -114 -314
-127 -358 -14 -48 -21 -45 -39 13 -6 22 -43 124 -82 226 l-70 185 -39 1 c-22
0 -41 -3 -44 -7z"/>
<path d="M5787 4522 c-2 -4 -3 -101 -2 -217 1 -191 4 -214 23 -258 18 -40 29
-51 69 -69 94 -42 229 -21 273 42 15 21 15 20 26 -16 9 -32 15 -38 42 -40 27
-2 32 1 33 19 1 29 1 439 0 498 l-1 46 -40 -1 c-33 -1 -40 -5 -41 -21 0 -11
-1 -96 -2 -190 -3 -196 -14 -233 -80 -268 -46 -24 -129 -25 -164 -2 -46 31
-53 67 -53 282 l0 198 -40 2 c-22 1 -41 -1 -43 -5z"/>
<path d="M7070 4249 c0 -179 4 -279 10 -280 6 -1 21 -1 35 -1 14 0 28 0 33 1
6 1 9 498 3 548 0 7 -17 12 -41 11 l-40 0 0 -279z"/>
<path d="M2046 3134 c-14 -13 -21 -42 -17 -67 1 -4 -6 -10 -14 -13 -19 -8 -20
-34 -1 -34 11 0 14 -19 12 -90 -2 -80 0 -90 16 -90 16 0 18 10 18 90 0 94 1
97 48 91 6 -1 12 5 12 14 0 10 -10 15 -31 15 -28 0 -30 2 -27 33 3 28 7 32 36
35 34 3 42 16 16 26 -27 10 -52 7 -68 -10z"/>
<path d="M5809 3147 c-1 -1 -2 -71 -3 -154 -2 -136 0 -153 14 -153 15 0 17 18
16 150 0 113 -3 151 -13 154 -7 3 -14 4 -14 3z"/>
<path d="M6016 3128 c-9 -12 -16 -35 -16 -50 0 -18 -5 -28 -15 -28 -8 0 -15
-7 -15 -16 0 -10 6 -14 15 -10 13 4 15 -9 15 -89 0 -78 3 -95 15 -95 17 0 17
3 18 108 0 74 3 78 45 73 6 -1 12 5 12 14 0 10 -10 15 -30 15 -21 0 -30 5 -30
16 0 30 20 54 46 54 36 0 25 23 -13 27 -24 3 -35 -2 -47 -19z"/>
<path d="M1047 3132 c-8 -2 -18 -9 -21 -17 -4 -10 5 -14 35 -13 22 0 43 -3 47
-7 4 -4 7 -61 8 -128 1 -106 3 -122 17 -125 15 -3 17 11 17 127 l0 131 33 1
c17 1 38 1 45 0 6 -1 12 5 12 14 0 8 -8 15 -17 16 -94 3 -162 3 -176 1z"/>
<path d="M2873 3124 c-7 -19 2 -28 22 -21 19 8 19 23 0 31 -9 3 -18 -1 -22
-10z"/>
<path d="M4940 3127 c-37 -18 -52 -57 -39 -95 8 -24 21 -35 57 -47 92 -33 92
-33 92 -64 0 -42 -23 -55 -91 -53 -46 1 -59 -2 -59 -13 0 -10 11 -15 33 -16
17 0 42 -2 54 -3 64 -7 116 58 94 118 -11 28 -30 39 -98 56 -52 13 -67 48 -37
81 16 17 26 19 70 14 34 -4 55 -2 59 5 10 16 5 19 -56 25 -34 3 -63 0 -79 -8z"/>
<path d="M5139 3137 c-8 -25 -5 -37 12 -37 22 0 26 25 4 34 -8 3 -15 4 -16 3z"/>
<path d="M5900 3120 c0 -11 7 -20 15 -20 8 0 15 9 15 20 0 11 -7 20 -15 20 -8
0 -15 -9 -15 -20z"/>
<path d="M6343 3133 c-21 -7 -15 -33 7 -33 11 0 20 6 20 14 0 18 -11 25 -27
19z"/>
<path d="M6975 3129 c-3 -8 -4 -77 -3 -153 l3 -138 63 0 c34 1 69 1 77 1 8 1
15 8 15 16 0 12 -14 15 -64 15 l-64 0 -1 127 c0 116 -11 170 -26 132z"/>
<path d="M7167 3120 c-4 -15 0 -20 14 -20 21 0 22 1 13 24 -8 22 -21 20 -27
-4z"/>
<path d="M1408 3053 c-16 -3 -28 -11 -28 -18 0 -11 10 -13 39 -9 47 7 81 -9
81 -36 0 -14 -7 -20 -22 -21 -13 -1 -27 -2 -33 -4 -5 -1 -18 -3 -27 -3 -42 -4
-63 -68 -35 -105 15 -20 52 -27 90 -16 16 4 39 4 52 -1 28 -11 47 7 22 21 -11
7 -15 28 -16 86 -1 53 -6 82 -16 92 -15 15 -58 20 -107 14z m92 -149 c0 -20
-5 -34 -12 -35 -7 0 -25 -3 -40 -5 -28 -5 -37 3 -43 35 -5 25 11 38 50 43 41
5 45 2 45 -38z"/>
<path d="M1666 3053 c-3 -4 -21 -6 -39 -5 l-33 1 0 -104 c0 -92 2 -105 17
-105 14 0 16 11 15 81 -1 85 4 96 45 103 50 8 59 -7 59 -100 0 -74 2 -85 17
-82 16 3 17 10 14 139 -1 19 -7 43 -14 53 -12 17 -69 30 -81 19z"/>
<path d="M1843 3045 c-25 -10 -33 -20 -33 -39 0 -44 11 -56 67 -72 30 -9 57
-22 60 -30 10 -26 -27 -42 -79 -37 -32 4 -48 2 -48 -6 0 -16 27 -25 77 -25 51
0 83 25 83 65 0 33 -27 54 -83 63 -78 14 -51 69 29 60 35 -3 44 -1 44 11 0 9
-9 15 -22 16 -13 0 -32 2 -43 4 -11 2 -35 -3 -52 -10z"/>
<path d="M2202 3053 c-38 -7 -61 -57 -57 -121 5 -81 29 -100 122 -93 46 3 72
96 48 172 -6 19 -62 51 -82 48 -4 -1 -18 -4 -31 -6z m66 -39 c37 -26 29 -137
-11 -148 -54 -14 -79 12 -79 79 0 61 12 79 57 84 6 0 21 -6 33 -15z"/>
<path d="M2590 3050 c-14 -4 -35 -5 -47 -3 -23 5 -23 4 -23 -101 0 -94 2 -106
18 -106 15 0 17 10 15 85 -2 85 -1 86 25 96 18 7 34 7 49 0 21 -10 23 -17 23
-97 0 -76 2 -85 18 -82 15 3 17 15 17 87 0 80 1 84 25 93 16 6 33 5 47 -1 24
-11 27 -32 23 -139 -1 -38 1 -43 17 -40 16 3 18 13 17 84 -2 113 -15 131 -89
125 -11 -1 -31 -2 -45 -3 -14 -1 -34 0 -45 4 -11 3 -31 2 -45 -2z"/>
<path d="M2876 3053 c-3 -4 -6 -53 -6 -110 0 -92 2 -103 18 -103 16 0 18 11
18 105 0 72 -4 106 -12 109 -7 3 -15 2 -18 -1z"/>
<path d="M3046 3053 c-3 -3 -22 -5 -43 -5 l-39 1 1 -102 c0 -84 3 -102 16
-105 13 -2 15 11 16 83 0 47 2 88 4 89 2 2 18 7 35 10 51 11 64 -11 64 -105 0
-69 2 -79 18 -79 15 0 17 9 15 68 -2 105 -2 107 -15 125 -13 16 -62 30 -72 20z"/>
<path d="M3233 3053 c-42 -8 -61 -62 -38 -107 16 -30 14 -81 -3 -113 -17 -31
-15 -50 8 -73 17 -17 32 -20 72 -19 56 3 84 21 93 61 10 40 -23 68 -79 68 -28
0 -46 5 -49 14 -8 19 1 26 34 26 42 0 69 29 72 75 2 25 7 39 15 38 6 -2 12 4
12 12 0 10 -11 15 -32 16 -18 0 -44 1 -58 3 -14 1 -35 1 -47 -1z m66 -37 c7
-8 11 -27 9 -43 -3 -24 -8 -28 -36 -31 -23 -2 -38 2 -47 14 -13 19 -9 54 9 66
18 13 53 9 65 -6z m30 -194 c13 -25 0 -42 -42 -52 -55 -12 -88 18 -64 58 13
20 94 15 106 -6z"/>
<path d="M3527 3048 c-15 -6 -30 -20 -33 -33 -11 -43 -1 -59 46 -74 80 -24 93
-37 66 -64 -11 -10 -29 -13 -66 -10 -32 3 -50 0 -50 -7 0 -14 17 -20 69 -24
53 -4 91 22 91 64 0 34 -26 54 -82 64 -76 14 -51 69 28 60 35 -3 44 -1 44 11
0 9 -9 15 -22 16 -13 0 -32 2 -43 4 -11 1 -32 -1 -48 -7z"/>
<path d="M3766 3052 c-3 -3 -21 -5 -39 -4 l-33 1 1 -149 c1 -82 4 -152 7 -156
15 -14 28 10 28 49 l0 42 46 1 c31 1 52 8 66 21 38 39 36 157 -5 182 -24 16
-62 22 -71 13z m46 -31 c9 -1 21 -40 23 -71 2 -47 -14 -77 -45 -84 -53 -10
-60 -1 -60 75 0 63 2 70 23 78 12 5 29 7 37 5 8 -1 18 -3 22 -3z"/>
<path d="M3943 3053 c-13 -3 -23 -11 -23 -18 0 -11 12 -13 50 -9 45 4 51 3 59
-18 12 -30 5 -35 -49 -43 -56 -8 -73 -24 -72 -67 1 -55 49 -77 120 -53 7 3 23
0 37 -5 26 -10 35 5 16 26 -5 5 -11 44 -13 86 -2 43 -8 82 -15 89 -12 12 -74
18 -110 12z m94 -152 c-4 -26 -9 -31 -38 -36 -40 -8 -59 4 -59 35 0 30 4 32
65 43 24 4 36 -13 32 -42z"/>
<path d="M4168 3048 c-41 -14 -58 -83 -39 -156 12 -43 42 -62 91 -56 14 1 30
3 36 3 6 1 11 8 11 16 0 11 -10 15 -31 14 -58 -3 -65 0 -75 37 -12 44 -4 95
18 109 9 5 31 10 50 10 32 0 59 24 29 26 -7 1 -24 2 -38 3 -14 2 -37 -1 -52
-6z"/>
<path d="M4353 3049 c-33 -12 -51 -56 -49 -118 2 -44 7 -58 28 -76 24 -21 30
-21 121 -16 10 1 17 7 14 14 -2 7 -18 11 -38 10 -55 -2 -75 5 -87 32 -7 14
-12 28 -12 30 0 2 33 5 72 7 78 3 74 0 69 62 -3 44 -68 74 -118 55z m71 -35
c9 -8 16 -24 16 -35 0 -16 -7 -19 -55 -19 -60 0 -61 1 -44 33 21 40 56 49 83
21z"/>
<path d="M4568 3052 c-41 -5 -65 -43 -52 -84 5 -18 53 -38 90 -38 14 0 25 -8
30 -22 10 -31 -18 -47 -71 -42 -41 5 -72 -10 -43 -21 27 -11 94 -12 113 -2 27
14 35 27 35 63 0 32 -28 54 -69 54 -10 0 -29 8 -41 18 -20 16 -21 20 -7 34 12
11 29 14 66 10 45 -4 51 -2 45 12 -3 9 -14 16 -23 17 -9 0 -23 1 -31 3 -8 1
-27 0 -42 -2z"/>
<path d="M5296 3052 c-3 -3 -19 -5 -36 -4 -33 1 -30 13 -33 -130 -2 -68 0 -78
16 -78 15 0 17 11 17 85 0 83 1 86 26 96 58 21 74 -2 74 -113 0 -54 3 -68 15
-68 12 0 15 17 15 90 0 65 3 90 13 91 6 0 21 2 32 4 40 8 50 -10 55 -102 5
-88 20 -114 30 -51 7 45 -5 157 -18 170 -10 10 -26 10 -114 6 -13 -1 -37 1
-55 4 -17 3 -34 4 -37 0z"/>
<path d="M5668 3054 c-3 -3 -24 -5 -47 -6 l-42 0 3 -151 c2 -109 6 -151 16
-155 8 -2 12 11 12 47 0 49 1 50 28 47 49 -6 89 12 102 44 15 37 9 136 -11
154 -17 17 -53 28 -61 20z m31 -43 c14 -14 18 -31 17 -70 -3 -59 -10 -70 -53
-75 -48 -6 -54 3 -51 79 3 64 5 70 28 76 38 11 39 10 59 -10z"/>
<path d="M6508 3054 c-3 -2 -22 -6 -43 -7 l-38 -2 0 -100 c0 -85 3 -100 17
-103 14 -3 16 8 16 82 0 89 0 90 41 99 48 12 63 -11 63 -99 1 -63 4 -79 17
-82 13 -2 15 11 14 88 -2 64 -6 95 -16 104 -16 15 -63 28 -71 20z"/>
<path d="M6692 3053 c-42 -8 -60 -86 -28 -122 10 -11 12 -21 6 -31 -5 -8 -6
-18 -3 -23 2 -4 -3 -24 -12 -44 -23 -47 -9 -79 38 -88 53 -10 125 6 129 29 10
74 -8 96 -79 96 -36 0 -43 3 -43 20 0 14 7 20 23 20 61 1 80 20 81 85 1 18 6
29 14 28 6 -2 12 4 12 12 0 11 -11 15 -37 16 -21 0 -47 2 -58 3 -11 2 -30 1
-43 -1z m67 -37 c7 -8 11 -27 9 -43 -3 -24 -8 -28 -37 -31 -36 -4 -51 9 -51
44 0 40 54 61 79 30z m29 -188 c14 -19 -2 -52 -29 -58 -37 -9 -70 1 -79 24
-11 31 7 46 55 46 23 0 47 -6 53 -12z"/>
<path d="M7504 3049 c-18 -5 -36 -19 -42 -34 -13 -28 -16 -113 -6 -140 8 -21
55 -45 80 -40 10 2 31 4 47 4 15 1 27 7 27 14 0 10 -13 13 -50 11 -41 -3 -52
0 -65 18 -28 41 -20 48 55 48 l70 0 0 30 c0 45 -20 78 -53 90 -16 5 -30 10
-31 9 -1 0 -15 -5 -32 -10z m63 -31 c6 -7 12 -23 15 -35 5 -18 1 -22 -26 -25
-49 -5 -76 2 -76 19 0 41 64 70 87 41z"/>
<path d="M7692 3044 c-27 -11 -32 -18 -32 -47 0 -42 13 -54 68 -63 89 -14 66
-78 -24 -67 -36 4 -44 2 -44 -11 0 -26 97 -27 136 -1 20 13 24 22 20 48 -5 34
-29 57 -58 57 -10 0 -19 -1 -20 -2 -2 -1 -13 4 -25 11 -51 26 -11 62 60 55 28
-4 37 -1 37 11 0 10 -10 15 -27 16 -16 0 -35 2 -44 4 -8 1 -30 -3 -47 -11z"/>
<path d="M1239 3038 c0 -7 -1 -53 -2 -103 0 -77 2 -90 16 -93 15 -3 17 7 17
76 l0 79 40 16 c22 8 40 20 40 26 0 14 -26 14 -53 0 -16 -9 -22 -9 -25 0 -5
15 -32 14 -33 -1z"/>
<path d="M2374 2948 c1 -86 4 -103 17 -106 14 -2 17 9 18 75 2 81 6 89 52 99
14 3 26 12 26 20 0 17 -21 18 -50 3 -16 -9 -22 -9 -25 0 -2 6 -12 11 -21 11
-16 0 -18 -11 -17 -102z"/>
<path d="M5135 2945 c0 -88 2 -105 15 -105 13 0 16 18 18 105 2 95 1 105 -16
105 -16 0 -17 -11 -17 -105z"/>
<path d="M5900 2945 c0 -87 3 -105 15 -105 12 0 15 18 15 105 0 87 -3 105 -15
105 -12 0 -15 -18 -15 -105z"/>
<path d="M6114 3034 c3 -8 17 -53 30 -100 29 -97 33 -107 48 -98 8 5 9 -1 4
-17 -16 -57 -18 -79 -8 -79 6 0 14 5 17 10 7 11 85 280 85 292 0 16 -29 7 -34
-9 -34 -120 -49 -163 -55 -163 -4 0 -18 41 -31 90 -20 73 -28 90 -43 90 -13 0
-17 -5 -13 -16z"/>
<path d="M6334 2945 c-1 -92 1 -105 16 -105 14 0 17 14 17 105 0 91 -2 105
-16 105 -14 0 -17 -15 -17 -105z"/>
<path d="M7164 2948 c1 -86 4 -103 17 -106 14 -2 16 12 15 103 0 90 -2 105
-16 105 -14 0 -16 -15 -16 -102z"/>
<path d="M7240 3044 c0 -4 12 -51 27 -105 l28 -99 32 0 c31 0 33 2 53 73 12
39 25 85 31 101 12 37 12 36 -9 36 -14 0 -22 -19 -41 -90 -23 -88 -35 -107
-45 -72 -41 142 -48 162 -61 162 -8 0 -15 -3 -15 -6z"/>
<path d="M4720 2874 c0 -8 0 -15 0 -16 -1 -2 -5 -20 -9 -40 -8 -34 -7 -37 9
-28 10 5 21 25 24 45 4 19 8 38 9 41 1 4 -6 8 -15 10 -10 1 -18 -4 -18 -12z"/>
</g>
</svg>
